<svg width="63" height="56" viewBox="0 0 63 56" fill="none" xmlns="http://www.w3.org/2000/svg">
<path d="M21.1666 46.7738V32.9343H41.8333V46.7738H49.5833V9.86842H13.4166V46.7738H21.1666ZM26.3333 46.7738H36.6666V37.5474H26.3333V46.7738ZM54.7499 46.7738H59.9166V51.3869H3.08325V46.7738H8.24992V7.56183C8.24992 6.95009 8.52209 6.3634 9.00656 5.93083C9.49103 5.49826 10.1481 5.25525 10.8333 5.25525H52.1666C52.8517 5.25525 53.5088 5.49826 53.9933 5.93083C54.4777 6.3634 54.7499 6.95009 54.7499 7.56183V46.7738ZM28.9166 19.0948V14.4816H34.0833V19.0948H39.2499V23.7079H34.0833V28.3211H28.9166V23.7079H23.7499V19.0948H28.9166Z" fill="white"/>
</svg>
